<svg width="1024" height="753" viewBox="0 0 1024 753" fill="none" xmlns="http://www.w3.org/2000/svg">
<g opacity="0.2" filter="url(#filter0_f_175_198)">
<ellipse cx="504.5" cy="36" rx="670.5" ry="350" fill="#338AF3"/>
</g>
<path d="M25.0349 272C26.5302 272 27.6622 272.63 28.4308 273.891C29.2134 275.138 29.6047 276.953 29.6047 279.336C29.6047 281.719 29.2134 283.541 28.4308 284.802C27.6622 286.063 26.5302 286.693 25.0349 286.693C23.5536 286.693 22.4216 286.063 21.639 284.802C20.8564 283.541 20.4651 281.719 20.4651 279.336C20.4651 276.967 20.8564 275.152 21.639 273.891C22.4216 272.63 23.5536 272 25.0349 272ZM21.9534 279.336C21.9534 281.026 22.1072 282.35 22.4146 283.306L27.0683 274.099C26.5791 273.448 25.9013 273.122 25.0349 273.122C24.0706 273.122 23.316 273.635 22.771 274.66C22.2259 275.672 21.9534 277.23 21.9534 279.336ZM25.0349 285.55C26.0131 285.55 26.7748 285.044 27.3198 284.033C27.8648 283.008 28.1373 281.442 28.1373 279.336C28.1373 277.549 27.9627 276.163 27.6133 275.18L22.9596 284.469C23.4627 285.19 24.1545 285.55 25.0349 285.55Z" fill="url(#paint0_linear_175_198)" fill-opacity="0.6"/>
<path d="M26.2926 309.135H29.3741V310.236H21.3874V309.135H24.9511V297.455L21.5551 299.471L20.9682 298.536L25.1607 295.959H26.2926V309.135Z" fill="url(#paint1_linear_175_198)" fill-opacity="0.6"/>
<path d="M25.0349 319.502C26.5302 319.502 27.6622 320.133 28.4308 321.393C29.2134 322.64 29.6047 324.455 29.6047 326.838C29.6047 329.221 29.2134 331.043 28.4308 332.304C27.6622 333.565 26.5302 334.195 25.0349 334.195C23.5536 334.195 22.4216 333.565 21.639 332.304C20.8564 331.043 20.4651 329.221 20.4651 326.838C20.4651 324.469 20.8564 322.654 21.639 321.393C22.4216 320.133 23.5536 319.502 25.0349 319.502ZM21.9534 326.838C21.9534 328.529 22.1072 329.852 22.4146 330.808L27.0683 321.601C26.5791 320.95 25.9013 320.624 25.0349 320.624C24.0706 320.624 23.316 321.137 22.771 322.162C22.2259 323.174 21.9534 324.732 21.9534 326.838ZM25.0349 333.052C26.0131 333.052 26.7748 332.546 27.3198 331.535C27.8648 330.51 28.1373 328.944 28.1373 326.838C28.1373 325.051 27.9627 323.665 27.6133 322.682L22.9596 331.971C23.4627 332.692 24.1545 333.052 25.0349 333.052Z" fill="url(#paint2_linear_175_198)" fill-opacity="0.6"/>
<path d="M26.2926 356.637H29.3741V357.738H21.3874V356.637H24.9511V344.957L21.5551 346.973L20.9682 346.038L25.1607 343.461H26.2926V356.637Z" fill="url(#paint3_linear_175_198)" fill-opacity="0.6"/>
<path d="M26.2926 380.388H29.3741V381.489H21.3874V380.388H24.9511V368.708L21.5551 370.724L20.9682 369.789L25.1607 367.212H26.2926V380.388Z" fill="url(#paint4_linear_175_198)" fill-opacity="0.6"/>
<path d="M25.0349 390.755C26.5302 390.755 27.6622 391.386 28.4308 392.646C29.2134 393.893 29.6047 395.708 29.6047 398.091C29.6047 400.474 29.2134 402.296 28.4308 403.557C27.6622 404.818 26.5302 405.448 25.0349 405.448C23.5536 405.448 22.4216 404.818 21.639 403.557C20.8564 402.296 20.4651 400.474 20.4651 398.091C20.4651 395.722 20.8564 393.907 21.639 392.646C22.4216 391.386 23.5536 390.755 25.0349 390.755ZM21.9534 398.091C21.9534 399.782 22.1072 401.105 22.4146 402.061L27.0683 392.854C26.5791 392.203 25.9013 391.878 25.0349 391.878C24.0706 391.878 23.316 392.39 22.771 393.415C22.2259 394.427 21.9534 395.985 21.9534 398.091ZM25.0349 404.305C26.0131 404.305 26.7748 403.8 27.3198 402.788C27.8648 401.763 28.1373 400.197 28.1373 398.091C28.1373 396.304 27.9627 394.919 27.6133 393.935L22.9596 403.225C23.4627 403.945 24.1545 404.305 25.0349 404.305Z" fill="url(#paint5_linear_175_198)" fill-opacity="0.6"/>
<path d="M26.2926 427.89H29.3741V428.992H21.3874V427.89H24.9511V416.21L21.5551 418.226L20.9682 417.291L25.1607 414.714H26.2926V427.89Z" fill="url(#paint6_linear_175_198)" fill-opacity="0.6"/>
<path d="M25.0349 438.257C26.5302 438.257 27.6622 438.888 28.4308 440.149C29.2134 441.396 29.6047 443.211 29.6047 445.594C29.6047 447.977 29.2134 449.798 28.4308 451.059C27.6622 452.32 26.5302 452.95 25.0349 452.95C23.5536 452.95 22.4216 452.32 21.639 451.059C20.8564 449.798 20.4651 447.977 20.4651 445.594C20.4651 443.224 20.8564 441.409 21.639 440.149C22.4216 438.888 23.5536 438.257 25.0349 438.257ZM21.9534 445.594C21.9534 447.284 22.1072 448.607 22.4146 449.563L27.0683 440.356C26.5791 439.705 25.9013 439.38 25.0349 439.38C24.0706 439.38 23.316 439.892 22.771 440.918C22.2259 441.929 21.9534 443.488 21.9534 445.594ZM25.0349 451.807C26.0131 451.807 26.7748 451.302 27.3198 450.29C27.8648 449.265 28.1373 447.699 28.1373 445.594C28.1373 443.806 27.9627 442.421 27.6133 441.437L22.9596 450.727C23.4627 451.447 24.1545 451.807 25.0349 451.807Z" fill="url(#paint7_linear_175_198)" fill-opacity="0.6"/>
<path d="M25.0349 462.008C26.5302 462.008 27.6622 462.639 28.4308 463.9C29.2134 465.147 29.6047 466.962 29.6047 469.345C29.6047 471.728 29.2134 473.549 28.4308 474.81C27.6622 476.071 26.5302 476.701 25.0349 476.701C23.5536 476.701 22.4216 476.071 21.639 474.81C20.8564 473.549 20.4651 471.728 20.4651 469.345C20.4651 466.975 20.8564 465.16 21.639 463.9C22.4216 462.639 23.5536 462.008 25.0349 462.008ZM21.9534 469.345C21.9534 471.035 22.1072 472.358 22.4146 473.314L27.0683 464.107C26.5791 463.456 25.9013 463.131 25.0349 463.131C24.0706 463.131 23.316 463.643 22.771 464.669C22.2259 465.68 21.9534 467.239 21.9534 469.345ZM25.0349 475.558C26.0131 475.558 26.7748 475.053 27.3198 474.041C27.8648 473.016 28.1373 471.451 28.1373 469.345C28.1373 467.557 27.9627 466.172 27.6133 465.188L22.9596 474.478C23.4627 475.198 24.1545 475.558 25.0349 475.558Z" fill="url(#paint8_linear_175_198)" fill-opacity="0.6"/>
<path d="M26.2926 499.143H29.3741V500.245H21.3874V499.143H24.9511V487.464L21.5551 489.48L20.9682 488.544L25.1607 485.967H26.2926V499.143Z" fill="url(#paint9_linear_175_198)" fill-opacity="0.6"/>
<path d="M25.0349 509.511C26.5302 509.511 27.6622 510.141 28.4308 511.402C29.2134 512.649 29.6047 514.464 29.6047 516.847C29.6047 519.23 29.2134 521.052 28.4308 522.312C27.6622 523.573 26.5302 524.204 25.0349 524.204C23.5536 524.204 22.4216 523.573 21.639 522.312C20.8564 521.052 20.4651 519.23 20.4651 516.847C20.4651 514.478 20.8564 512.663 21.639 511.402C22.4216 510.141 23.5536 509.511 25.0349 509.511ZM21.9534 516.847C21.9534 518.537 22.1072 519.86 22.4146 520.816L27.0683 511.61C26.5791 510.958 25.9013 510.633 25.0349 510.633C24.0706 510.633 23.316 511.145 22.771 512.171C22.2259 513.182 21.9534 514.741 21.9534 516.847ZM25.0349 523.061C26.0131 523.061 26.7748 522.555 27.3198 521.543C27.8648 520.518 28.1373 518.953 28.1373 516.847C28.1373 515.059 27.9627 513.674 27.6133 512.69L22.9596 521.98C23.4627 522.7 24.1545 523.061 25.0349 523.061Z" fill="url(#paint10_linear_175_198)" fill-opacity="0.6"/>
<path d="M26.2926 546.645H29.3741V547.747H21.3874V546.645H24.9511V534.966L21.5551 536.982L20.9682 536.046L25.1607 533.469H26.2926V546.645Z" fill="url(#paint11_linear_175_198)" fill-opacity="0.6"/>
<path d="M26.2926 570.396H29.3741V571.498H21.3874V570.396H24.9511V558.717L21.5551 560.733L20.9682 559.798L25.1607 557.221H26.2926V570.396Z" fill="url(#paint12_linear_175_198)" fill-opacity="0.6"/>
<path d="M63.9651 319.502C65.4604 319.502 66.5924 320.133 67.361 321.393C68.1436 322.64 68.5349 324.455 68.5349 326.838C68.5349 329.221 68.1436 331.043 67.361 332.304C66.5924 333.565 65.4604 334.195 63.9651 334.195C62.4838 334.195 61.3518 333.565 60.5692 332.304C59.7866 331.043 59.3953 329.221 59.3953 326.838C59.3953 324.469 59.7866 322.654 60.5692 321.393C61.3518 320.133 62.4838 319.502 63.9651 319.502ZM60.8836 326.838C60.8836 328.529 61.0374 329.852 61.3448 330.808L65.9985 321.601C65.5093 320.95 64.8315 320.624 63.9651 320.624C63.0008 320.624 62.2462 321.137 61.7012 322.162C61.1561 323.174 60.8836 324.732 60.8836 326.838ZM63.9651 333.052C64.9433 333.052 65.705 332.546 66.25 331.535C66.795 330.51 67.0675 328.944 67.0675 326.838C67.0675 325.051 66.8928 323.665 66.5435 322.682L61.8898 331.971C62.3929 332.692 63.0847 333.052 63.9651 333.052Z" fill="url(#paint13_linear_175_198)" fill-opacity="0.6"/>
<path d="M65.2228 356.637H68.3043V357.738H60.3176V356.637H63.8812V344.957L60.4853 346.973L59.8984 346.038L64.0909 343.461H65.2228V356.637Z" fill="url(#paint14_linear_175_198)" fill-opacity="0.6"/>
<path d="M63.9651 367.004C65.4604 367.004 66.5924 367.635 67.361 368.895C68.1436 370.142 68.5349 371.957 68.5349 374.34C68.5349 376.723 68.1436 378.545 67.361 379.806C66.5924 381.067 65.4604 381.697 63.9651 381.697C62.4838 381.697 61.3518 381.067 60.5692 379.806C59.7866 378.545 59.3953 376.723 59.3953 374.34C59.3953 371.971 59.7866 370.156 60.5692 368.895C61.3518 367.635 62.4838 367.004 63.9651 367.004ZM60.8836 374.34C60.8836 376.031 61.0374 377.354 61.3448 378.31L65.9985 369.103C65.5093 368.452 64.8315 368.126 63.9651 368.126C63.0008 368.126 62.2462 368.639 61.7012 369.664C61.1561 370.676 60.8836 372.234 60.8836 374.34ZM63.9651 380.554C64.9433 380.554 65.705 380.049 66.25 379.037C66.795 378.012 67.0675 376.446 67.0675 374.34C67.0675 372.553 66.8928 371.168 66.5435 370.184L61.8898 379.474C62.3929 380.194 63.0847 380.554 63.9651 380.554Z" fill="url(#paint15_linear_175_198)" fill-opacity="0.6"/>
<path d="M63.9651 390.755C65.4604 390.755 66.5924 391.386 67.361 392.646C68.1436 393.893 68.5349 395.708 68.5349 398.091C68.5349 400.474 68.1436 402.296 67.361 403.557C66.5924 404.818 65.4604 405.448 63.9651 405.448C62.4838 405.448 61.3518 404.818 60.5692 403.557C59.7866 402.296 59.3953 400.474 59.3953 398.091C59.3953 395.722 59.7866 393.907 60.5692 392.646C61.3518 391.386 62.4838 390.755 63.9651 390.755ZM60.8836 398.091C60.8836 399.782 61.0374 401.105 61.3448 402.061L65.9985 392.854C65.5093 392.203 64.8315 391.878 63.9651 391.878C63.0008 391.878 62.2462 392.39 61.7012 393.415C61.1561 394.427 60.8836 395.985 60.8836 398.091ZM63.9651 404.305C64.9433 404.305 65.705 403.8 66.25 402.788C66.795 401.763 67.0675 400.197 67.0675 398.091C67.0675 396.304 66.8928 394.919 66.5435 393.935L61.8898 403.225C62.3929 403.945 63.0847 404.305 63.9651 404.305Z" fill="url(#paint16_linear_175_198)" fill-opacity="0.6"/>
<path d="M65.2228 427.89H68.3043V428.992H60.3176V427.89H63.8812V416.21L60.4853 418.226L59.8984 417.291L64.0909 414.714H65.2228V427.89Z" fill="url(#paint17_linear_175_198)" fill-opacity="0.6"/>
<path d="M63.9651 438.257C65.4604 438.257 66.5924 438.888 67.361 440.149C68.1436 441.396 68.5349 443.211 68.5349 445.594C68.5349 447.977 68.1436 449.798 67.361 451.059C66.5924 452.32 65.4604 452.95 63.9651 452.95C62.4838 452.95 61.3518 452.32 60.5692 451.059C59.7866 449.798 59.3953 447.977 59.3953 445.594C59.3953 443.224 59.7866 441.409 60.5692 440.149C61.3518 438.888 62.4838 438.257 63.9651 438.257ZM60.8836 445.594C60.8836 447.284 61.0374 448.607 61.3448 449.563L65.9985 440.356C65.5093 439.705 64.8315 439.38 63.9651 439.38C63.0008 439.38 62.2462 439.892 61.7012 440.918C61.1561 441.929 60.8836 443.488 60.8836 445.594ZM63.9651 451.807C64.9433 451.807 65.705 451.302 66.25 450.29C66.795 449.265 67.0675 447.699 67.0675 445.594C67.0675 443.806 66.8928 442.421 66.5435 441.437L61.8898 450.727C62.3929 451.447 63.0847 451.807 63.9651 451.807Z" fill="url(#paint18_linear_175_198)" fill-opacity="0.6"/>
<path d="M65.2228 475.392H68.3043V476.494H60.3176V475.392H63.8812V463.713L60.4853 465.728L59.8984 464.793L64.0909 462.216H65.2228V475.392Z" fill="url(#paint19_linear_175_198)" fill-opacity="0.6"/>
<path d="M63.9651 485.76C65.4604 485.76 66.5924 486.39 67.361 487.651C68.1436 488.898 68.5349 490.713 68.5349 493.096C68.5349 495.479 68.1436 497.301 67.361 498.561C66.5924 499.822 65.4604 500.453 63.9651 500.453C62.4838 500.453 61.3518 499.822 60.5692 498.561C59.7866 497.301 59.3953 495.479 59.3953 493.096C59.3953 490.726 59.7866 488.911 60.5692 487.651C61.3518 486.39 62.4838 485.76 63.9651 485.76ZM60.8836 493.096C60.8836 494.786 61.0374 496.109 61.3448 497.065L65.9985 487.859C65.5093 487.207 64.8315 486.882 63.9651 486.882C63.0008 486.882 62.2462 487.394 61.7012 488.42C61.1561 489.431 60.8836 490.99 60.8836 493.096ZM63.9651 499.31C64.9433 499.31 65.705 498.804 66.25 497.792C66.795 496.767 67.0675 495.202 67.0675 493.096C67.0675 491.308 66.8928 489.923 66.5435 488.939L61.8898 498.229C62.3929 498.949 63.0847 499.31 63.9651 499.31Z" fill="url(#paint20_linear_175_198)" fill-opacity="0.6"/>
<path d="M63.9651 509.511C65.4604 509.511 66.5924 510.141 67.361 511.402C68.1436 512.649 68.5349 514.464 68.5349 516.847C68.5349 519.23 68.1436 521.052 67.361 522.312C66.5924 523.573 65.4604 524.204 63.9651 524.204C62.4838 524.204 61.3518 523.573 60.5692 522.312C59.7866 521.052 59.3953 519.23 59.3953 516.847C59.3953 514.478 59.7866 512.663 60.5692 511.402C61.3518 510.141 62.4838 509.511 63.9651 509.511ZM60.8836 516.847C60.8836 518.537 61.0374 519.86 61.3448 520.816L65.9985 511.61C65.5093 510.958 64.8315 510.633 63.9651 510.633C63.0008 510.633 62.2462 511.145 61.7012 512.171C61.1561 513.182 60.8836 514.741 60.8836 516.847ZM63.9651 523.061C64.9433 523.061 65.705 522.555 66.25 521.543C66.795 520.518 67.0675 518.953 67.0675 516.847C67.0675 515.059 66.8928 513.674 66.5435 512.69L61.8898 521.98C62.3929 522.7 63.0847 523.061 63.9651 523.061Z" fill="url(#paint21_linear_175_198)" fill-opacity="0.6"/>
<path d="M65.2228 546.645H68.3043V547.747H60.3176V546.645H63.8812V534.966L60.4853 536.982L59.8984 536.046L64.0909 533.469H65.2228V546.645Z" fill="url(#paint22_linear_175_198)" fill-opacity="0.6"/>
<path d="M63.9651 557.013C65.4604 557.013 66.5924 557.643 67.361 558.904C68.1436 560.151 68.5349 561.966 68.5349 564.349C68.5349 566.732 68.1436 568.554 67.361 569.815C66.5924 571.075 65.4604 571.706 63.9651 571.706C62.4838 571.706 61.3518 571.075 60.5692 569.815C59.7866 568.554 59.3953 566.732 59.3953 564.349C59.3953 561.98 59.7866 560.165 60.5692 558.904C61.3518 557.643 62.4838 557.013 63.9651 557.013ZM60.8836 564.349C60.8836 566.039 61.0374 567.362 61.3448 568.318L65.9985 559.112C65.5093 558.461 64.8315 558.135 63.9651 558.135C63.0008 558.135 62.2462 558.648 61.7012 559.673C61.1561 560.684 60.8836 562.243 60.8836 564.349ZM63.9651 570.563C64.9433 570.563 65.705 570.057 66.25 569.046C66.795 568.02 67.0675 566.455 67.0675 564.349C67.0675 562.562 66.8928 561.176 66.5435 560.192L61.8898 569.482C62.3929 570.202 63.0847 570.563 63.9651 570.563Z" fill="url(#paint23_linear_175_198)" fill-opacity="0.6"/>
<path d="M65.2228 594.148H68.3043V595.249H60.3176V594.148H63.8812V582.468L60.4853 584.484L59.8984 583.549L64.0909 580.972H65.2228V594.148Z" fill="url(#paint24_linear_175_198)" fill-opacity="0.6"/>
<path d="M65.2228 617.899H68.3043V619H60.3176V617.899H63.8812V606.219L60.4853 608.235L59.8984 607.3L64.0909 604.723H65.2228V617.899Z" fill="url(#paint25_linear_175_198)" fill-opacity="0.6"/>
<path d="M5.56981 343.253C7.06512 343.253 8.1971 343.884 8.96572 345.144C9.74831 346.391 10.1396 348.206 10.1396 350.589C10.1396 352.972 9.74831 354.794 8.96572 356.055C8.1971 357.316 7.06512 357.946 5.56981 357.946C4.08846 357.946 2.95649 357.316 2.1739 356.055C1.3913 354.794 1 352.972 1 350.589C1 348.22 1.3913 346.405 2.1739 345.144C2.95649 343.884 4.08846 343.253 5.56981 343.253ZM2.48833 350.589C2.48833 352.28 2.64206 353.603 2.9495 354.559L7.60316 345.352C7.11404 344.701 6.43625 344.375 5.56981 344.375C4.60553 344.375 3.85089 344.888 3.30587 345.913C2.76084 346.925 2.48833 348.483 2.48833 350.589ZM5.56981 356.803C6.54805 356.803 7.30969 356.297 7.85471 355.286C8.39973 354.261 8.67224 352.695 8.67224 350.589C8.67224 348.802 8.49756 347.417 8.14818 346.433L3.49453 355.722C3.99763 356.443 4.68938 356.803 5.56981 356.803Z" fill="url(#paint26_linear_175_198)" fill-opacity="0.6"/>
<path d="M5.56981 367.004C7.06512 367.004 8.1971 367.635 8.96572 368.895C9.74831 370.142 10.1396 371.957 10.1396 374.34C10.1396 376.723 9.74831 378.545 8.96572 379.806C8.1971 381.067 7.06512 381.697 5.56981 381.697C4.08846 381.697 2.95649 381.067 2.1739 379.806C1.3913 378.545 1 376.723 1 374.34C1 371.971 1.3913 370.156 2.1739 368.895C2.95649 367.635 4.08846 367.004 5.56981 367.004ZM2.48833 374.34C2.48833 376.031 2.64206 377.354 2.9495 378.31L7.60316 369.103C7.11404 368.452 6.43625 368.126 5.56981 368.126C4.60553 368.126 3.85089 368.639 3.30587 369.664C2.76084 370.676 2.48833 372.234 2.48833 374.34ZM5.56981 380.554C6.54805 380.554 7.30969 380.049 7.85471 379.037C8.39973 378.012 8.67224 376.446 8.67224 374.34C8.67224 372.553 8.49756 371.168 8.14818 370.184L3.49453 379.474C3.99763 380.194 4.68938 380.554 5.56981 380.554Z" fill="url(#paint27_linear_175_198)" fill-opacity="0.6"/>
<path d="M6.82755 404.139H9.90903V405.24H1.92235V404.139H5.48596V392.459L2.09005 394.475L1.5031 393.54L5.69558 390.963H6.82755V404.139Z" fill="url(#paint28_linear_175_198)" fill-opacity="0.6"/>
<path d="M5.56981 414.506C7.06512 414.506 8.1971 415.137 8.96572 416.398C9.74831 417.644 10.1396 419.459 10.1396 421.842C10.1396 424.225 9.74831 426.047 8.96572 427.308C8.1971 428.569 7.06512 429.199 5.56981 429.199C4.08846 429.199 2.95649 428.569 2.1739 427.308C1.3913 426.047 1 424.225 1 421.842C1 419.473 1.3913 417.658 2.1739 416.398C2.95649 415.137 4.08846 414.506 5.56981 414.506ZM2.48833 421.842C2.48833 423.533 2.64206 424.856 2.9495 425.812L7.60316 416.605C7.11404 415.954 6.43625 415.629 5.56981 415.629C4.60553 415.629 3.85089 416.141 3.30587 417.166C2.76084 418.178 2.48833 419.737 2.48833 421.842ZM5.56981 428.056C6.54805 428.056 7.30969 427.551 7.85471 426.539C8.39973 425.514 8.67224 423.948 8.67224 421.842C8.67224 420.055 8.49756 418.67 8.14818 417.686L3.49453 426.976C3.99763 427.696 4.68938 428.056 5.56981 428.056Z" fill="url(#paint29_linear_175_198)" fill-opacity="0.6"/>
<path d="M6.82755 451.641H9.90903V452.743H1.92235V451.641H5.48596V439.962L2.09005 441.977L1.5031 441.042L5.69558 438.465H6.82755V451.641Z" fill="url(#paint30_linear_175_198)" fill-opacity="0.6"/>
<path d="M6.82755 475.392H9.90903V476.494H1.92235V475.392H5.48596V463.713L2.09005 465.728L1.5031 464.793L5.69558 462.216H6.82755V475.392Z" fill="url(#paint31_linear_175_198)" fill-opacity="0.6"/>
<path d="M45.7577 309.135H48.8392V310.236H40.8525V309.135H44.4162V297.455L41.0202 299.471L40.4333 298.536L44.6258 295.959H45.7577V309.135Z" fill="url(#paint32_linear_175_198)" fill-opacity="0.6"/>
<path d="M44.5 319.502C45.9953 319.502 47.1273 320.133 47.8959 321.393C48.6785 322.64 49.0698 324.455 49.0698 326.838C49.0698 329.221 48.6785 331.043 47.8959 332.304C47.1273 333.565 45.9953 334.195 44.5 334.195C43.0187 334.195 41.8867 333.565 41.1041 332.304C40.3215 331.043 39.9302 329.221 39.9302 326.838C39.9302 324.469 40.3215 322.654 41.1041 321.393C41.8867 320.133 43.0187 319.502 44.5 319.502ZM41.4185 326.838C41.4185 328.529 41.5723 329.852 41.8797 330.808L46.5334 321.601C46.0442 320.95 45.3664 320.624 44.5 320.624C43.5357 320.624 42.7811 321.137 42.2361 322.162C41.691 323.174 41.4185 324.732 41.4185 326.838ZM44.5 333.052C45.4782 333.052 46.2399 332.546 46.7849 331.535C47.3299 330.51 47.6024 328.944 47.6024 326.838C47.6024 325.051 47.4277 323.665 47.0784 322.682L42.4247 331.971C42.9278 332.692 43.6196 333.052 44.5 333.052Z" fill="url(#paint33_linear_175_198)" fill-opacity="0.6"/>
<path d="M45.7577 356.637H48.8392V357.738H40.8525V356.637H44.4162V344.957L41.0202 346.973L40.4333 346.038L44.6258 343.461H45.7577V356.637Z" fill="url(#paint34_linear_175_198)" fill-opacity="0.6"/>
<path d="M45.7577 380.388H48.8392V381.489H40.8525V380.388H44.4162V368.708L41.0202 370.724L40.4333 369.789L44.6258 367.212H45.7577V380.388Z" fill="url(#paint35_linear_175_198)" fill-opacity="0.6"/>
<path d="M44.5 390.755C45.9953 390.755 47.1273 391.386 47.8959 392.646C48.6785 393.893 49.0698 395.708 49.0698 398.091C49.0698 400.474 48.6785 402.296 47.8959 403.557C47.1273 404.818 45.9953 405.448 44.5 405.448C43.0187 405.448 41.8867 404.818 41.1041 403.557C40.3215 402.296 39.9302 400.474 39.9302 398.091C39.9302 395.722 40.3215 393.907 41.1041 392.646C41.8867 391.386 43.0187 390.755 44.5 390.755ZM41.4185 398.091C41.4185 399.782 41.5723 401.105 41.8797 402.061L46.5334 392.854C46.0442 392.203 45.3664 391.878 44.5 391.878C43.5357 391.878 42.7811 392.39 42.2361 393.415C41.691 394.427 41.4185 395.985 41.4185 398.091ZM44.5 404.305C45.4782 404.305 46.2399 403.8 46.7849 402.788C47.3299 401.763 47.6024 400.197 47.6024 398.091C47.6024 396.304 47.4277 394.919 47.0784 393.935L42.4247 403.225C42.9278 403.945 43.6196 404.305 44.5 404.305Z" fill="url(#paint36_linear_175_198)" fill-opacity="0.6"/>
<path d="M45.7577 427.89H48.8392V428.992H40.8525V427.89H44.4162V416.21L41.0202 418.226L40.4333 417.291L44.6258 414.714H45.7577V427.89Z" fill="url(#paint37_linear_175_198)" fill-opacity="0.6"/>
<path d="M45.7577 451.641H48.8392V452.743H40.8525V451.641H44.4162V439.962L41.0202 441.977L40.4333 441.042L44.6258 438.465H45.7577V451.641Z" fill="url(#paint38_linear_175_198)" fill-opacity="0.6"/>
<path d="M44.5 462.008C45.9953 462.008 47.1273 462.639 47.8959 463.9C48.6785 465.147 49.0698 466.962 49.0698 469.345C49.0698 471.728 48.6785 473.549 47.8959 474.81C47.1273 476.071 45.9953 476.701 44.5 476.701C43.0187 476.701 41.8867 476.071 41.1041 474.81C40.3215 473.549 39.9302 471.728 39.9302 469.345C39.9302 466.975 40.3215 465.16 41.1041 463.9C41.8867 462.639 43.0187 462.008 44.5 462.008ZM41.4185 469.345C41.4185 471.035 41.5723 472.358 41.8797 473.314L46.5334 464.107C46.0442 463.456 45.3664 463.131 44.5 463.131C43.5357 463.131 42.7811 463.643 42.2361 464.669C41.691 465.68 41.4185 467.239 41.4185 469.345ZM44.5 475.558C45.4782 475.558 46.2399 475.053 46.7849 474.041C47.3299 473.016 47.6024 471.451 47.6024 469.345C47.6024 467.557 47.4277 466.172 47.0784 465.188L42.4247 474.478C42.9278 475.198 43.6196 475.558 44.5 475.558Z" fill="url(#paint39_linear_175_198)" fill-opacity="0.6"/>
<path d="M45.7577 499.143H48.8392V500.245H40.8525V499.143H44.4162V487.464L41.0202 489.48L40.4333 488.544L44.6258 485.967H45.7577V499.143Z" fill="url(#paint40_linear_175_198)" fill-opacity="0.6"/>
<path d="M44.5 509.511C45.9953 509.511 47.1273 510.141 47.8959 511.402C48.6785 512.649 49.0698 514.464 49.0698 516.847C49.0698 519.23 48.6785 521.052 47.8959 522.312C47.1273 523.573 45.9953 524.204 44.5 524.204C43.0187 524.204 41.8867 523.573 41.1041 522.312C40.3215 521.052 39.9302 519.23 39.9302 516.847C39.9302 514.478 40.3215 512.663 41.1041 511.402C41.8867 510.141 43.0187 509.511 44.5 509.511ZM41.4185 516.847C41.4185 518.537 41.5723 519.86 41.8797 520.816L46.5334 511.61C46.0442 510.958 45.3664 510.633 44.5 510.633C43.5357 510.633 42.7811 511.145 42.2361 512.171C41.691 513.182 41.4185 514.741 41.4185 516.847ZM44.5 523.061C45.4782 523.061 46.2399 522.555 46.7849 521.543C47.3299 520.518 47.6024 518.953 47.6024 516.847C47.6024 515.059 47.4277 513.674 47.0784 512.69L42.4247 521.98C42.9278 522.7 43.6196 523.061 44.5 523.061Z" fill="url(#paint41_linear_175_198)" fill-opacity="0.6"/>
<path d="M83.4302 295.751C84.9255 295.751 86.0575 296.381 86.8261 297.642C87.6087 298.889 88 300.704 88 303.087C88 305.47 87.6087 307.292 86.8261 308.553C86.0575 309.814 84.9255 310.444 83.4302 310.444C81.9489 310.444 80.8169 309.814 80.0343 308.553C79.2517 307.292 78.8604 305.47 78.8604 303.087C78.8604 300.718 79.2517 298.903 80.0343 297.642C80.8169 296.381 81.9489 295.751 83.4302 295.751ZM80.3487 303.087C80.3487 304.777 80.5024 306.101 80.8099 307.057L85.4636 297.85C84.9744 297.199 84.2966 296.873 83.4302 296.873C82.4659 296.873 81.7113 297.386 81.1663 298.411C80.6212 299.423 80.3487 300.981 80.3487 303.087ZM83.4302 309.301C84.4084 309.301 85.1701 308.795 85.7151 307.784C86.2601 306.759 86.5326 305.193 86.5326 303.087C86.5326 301.3 86.3579 299.914 86.0086 298.931L81.3549 308.22C81.858 308.941 82.5498 309.301 83.4302 309.301Z" fill="url(#paint42_linear_175_198)" fill-opacity="0.6"/>
<path d="M84.6879 332.886H87.7694V333.987H79.7827V332.886H83.3463V321.206L79.9504 323.222L79.3635 322.287L83.556 319.71H84.6879V332.886Z" fill="url(#paint43_linear_175_198)" fill-opacity="0.6"/>
<path d="M84.6879 356.637H87.7694V357.738H79.7827V356.637H83.3463V344.957L79.9504 346.973L79.3635 346.038L83.556 343.461H84.6879V356.637Z" fill="url(#paint44_linear_175_198)" fill-opacity="0.6"/>
<path d="M83.4302 367.004C84.9255 367.004 86.0575 367.635 86.8261 368.895C87.6087 370.142 88 371.957 88 374.34C88 376.723 87.6087 378.545 86.8261 379.806C86.0575 381.067 84.9255 381.697 83.4302 381.697C81.9489 381.697 80.8169 381.067 80.0343 379.806C79.2517 378.545 78.8604 376.723 78.8604 374.34C78.8604 371.971 79.2517 370.156 80.0343 368.895C80.8169 367.635 81.9489 367.004 83.4302 367.004ZM80.3487 374.34C80.3487 376.031 80.5024 377.354 80.8099 378.31L85.4636 369.103C84.9744 368.452 84.2966 368.126 83.4302 368.126C82.4659 368.126 81.7113 368.639 81.1663 369.664C80.6212 370.676 80.3487 372.234 80.3487 374.34ZM83.4302 380.554C84.4084 380.554 85.1701 380.049 85.7151 379.037C86.2601 378.012 86.5326 376.446 86.5326 374.34C86.5326 372.553 86.3579 371.168 86.0086 370.184L81.3549 379.474C81.858 380.194 82.5498 380.554 83.4302 380.554Z" fill="url(#paint45_linear_175_198)" fill-opacity="0.6"/>
<path d="M83.4302 390.755C84.9255 390.755 86.0575 391.386 86.8261 392.646C87.6087 393.893 88 395.708 88 398.091C88 400.474 87.6087 402.296 86.8261 403.557C86.0575 404.818 84.9255 405.448 83.4302 405.448C81.9489 405.448 80.8169 404.818 80.0343 403.557C79.2517 402.296 78.8604 400.474 78.8604 398.091C78.8604 395.722 79.2517 393.907 80.0343 392.646C80.8169 391.386 81.9489 390.755 83.4302 390.755ZM80.3487 398.091C80.3487 399.782 80.5024 401.105 80.8099 402.061L85.4636 392.854C84.9744 392.203 84.2966 391.878 83.4302 391.878C82.4659 391.878 81.7113 392.39 81.1663 393.415C80.6212 394.427 80.3487 395.985 80.3487 398.091ZM83.4302 404.305C84.4084 404.305 85.1701 403.8 85.7151 402.788C86.2601 401.763 86.5326 400.197 86.5326 398.091C86.5326 396.304 86.3579 394.919 86.0086 393.935L81.3549 403.225C81.858 403.945 82.5498 404.305 83.4302 404.305Z" fill="url(#paint46_linear_175_198)" fill-opacity="0.6"/>
<g opacity="0.6">
<path d="M911.93 -28C913.356 -28 914.436 -27.395 915.17 -26.1851C915.916 -24.9885 916.29 -23.2468 916.29 -20.9599C916.29 -18.673 915.916 -16.9246 915.17 -15.7147C914.436 -14.5048 913.356 -13.8998 911.93 -13.8998C910.517 -13.8998 909.437 -14.5048 908.69 -15.7147C907.943 -16.9246 907.57 -18.673 907.57 -20.9599C907.57 -23.2335 907.943 -24.9752 908.69 -26.1851C909.437 -27.395 910.517 -28 911.93 -28ZM908.99 -20.9599C908.99 -19.3378 909.137 -18.068 909.43 -17.1506L913.87 -25.9857C913.403 -26.6106 912.756 -26.923 911.93 -26.923C911.01 -26.923 910.29 -26.4311 909.77 -25.4472C909.25 -24.4766 908.99 -22.9808 908.99 -20.9599ZM911.93 -14.9967C912.863 -14.9967 913.59 -15.482 914.11 -16.4526C914.63 -17.4365 914.89 -18.9389 914.89 -20.9599C914.89 -22.675 914.723 -24.0046 914.39 -24.9486L909.95 -16.0338C910.43 -15.3424 911.09 -14.9967 911.93 -14.9967Z" fill="url(#paint47_linear_175_198)"/>
<path d="M913.13 7.63655H916.07V8.69356H908.45V7.63655H911.85V-3.57181L908.61 -1.63727L908.05 -2.53474L912.05 -5.00776H913.13V7.63655Z" fill="url(#paint48_linear_175_198)"/>
<path d="M911.93 17.5856C913.356 17.5856 914.436 18.1906 915.17 19.4005C915.916 20.5971 916.29 22.3389 916.29 24.6257C916.29 26.9126 915.916 28.661 915.17 29.8709C914.436 31.0808 913.356 31.6858 911.93 31.6858C910.517 31.6858 909.437 31.0808 908.69 29.8709C907.943 28.661 907.57 26.9126 907.57 24.6257C907.57 22.3522 907.943 20.6104 908.69 19.4005C909.437 18.1906 910.517 17.5856 911.93 17.5856ZM908.99 24.6257C908.99 26.2478 909.137 27.5176 909.43 28.435L913.87 19.5999C913.403 18.975 912.756 18.6626 911.93 18.6626C911.01 18.6626 910.29 19.1545 909.77 20.1384C909.25 21.109 908.99 22.6048 908.99 24.6257ZM911.93 30.5889C912.863 30.5889 913.59 30.1036 914.11 29.133C914.63 28.1491 914.89 26.6467 914.89 24.6257C914.89 22.9106 914.723 21.581 914.39 20.637L909.95 29.5518C910.43 30.2432 911.09 30.5889 911.93 30.5889Z" fill="url(#paint49_linear_175_198)"/>
<path d="M913.13 53.2221H916.07V54.2792H908.45V53.2221H911.85V42.0138L908.61 43.9483L908.05 43.0509L912.05 40.5778H913.13V53.2221Z" fill="url(#paint50_linear_175_198)"/>
<path d="M913.13 76.015H916.07V77.072H908.45V76.015H911.85V64.8066L908.61 66.7411L908.05 65.8437L912.05 63.3706H913.13V76.015Z" fill="url(#paint51_linear_175_198)"/>
<path d="M911.93 85.964C913.356 85.964 914.436 86.569 915.17 87.7789C915.916 88.9755 916.29 90.7173 916.29 93.0041C916.29 95.291 915.916 97.0394 915.17 98.2493C914.436 99.4593 913.356 100.064 911.93 100.064C910.517 100.064 909.437 99.4593 908.69 98.2493C907.943 97.0394 907.57 95.291 907.57 93.0041C907.57 90.7306 907.943 88.9888 908.69 87.7789C909.437 86.569 910.517 85.964 911.93 85.964ZM908.99 93.0041C908.99 94.6262 909.137 95.896 909.43 96.8134L913.87 87.9783C913.403 87.3534 912.756 87.041 911.93 87.041C911.01 87.041 910.29 87.5329 909.77 88.5168C909.25 89.4874 908.99 90.9832 908.99 93.0041ZM911.93 98.9673C912.863 98.9673 913.59 98.482 914.11 97.5114C914.63 96.5275 914.89 95.0251 914.89 93.0041C914.89 91.289 914.723 89.9594 914.39 89.0154L909.95 97.9302C910.43 98.6216 911.09 98.9673 911.93 98.9673Z" fill="url(#paint52_linear_175_198)"/>
<path d="M913.13 121.601H916.07V122.658H908.45V121.601H911.85V110.392L908.61 112.327L908.05 111.429L912.05 108.956H913.13V121.601Z" fill="url(#paint53_linear_175_198)"/>
<path d="M911.93 131.55C913.356 131.55 914.436 132.155 915.17 133.365C915.916 134.561 916.29 136.303 916.29 138.59C916.29 140.877 915.916 142.625 915.17 143.835C914.436 145.045 913.356 145.65 911.93 145.65C910.517 145.65 909.437 145.045 908.69 143.835C907.943 142.625 907.57 140.877 907.57 138.59C907.57 136.316 907.943 134.574 908.69 133.365C909.437 132.155 910.517 131.55 911.93 131.55ZM908.99 138.59C908.99 140.212 909.137 141.482 909.43 142.399L913.87 133.564C913.403 132.939 912.756 132.627 911.93 132.627C911.01 132.627 910.29 133.119 909.77 134.102C909.25 135.073 908.99 136.569 908.99 138.59ZM911.93 144.553C912.863 144.553 913.59 144.068 914.11 143.097C914.63 142.113 914.89 140.611 914.89 138.59C914.89 136.875 914.723 135.545 914.39 134.601L909.95 143.516C910.43 144.207 911.09 144.553 911.93 144.553Z" fill="url(#paint54_linear_175_198)"/>
<path d="M911.93 154.342C913.356 154.342 914.436 154.947 915.17 156.157C915.916 157.354 916.29 159.096 916.29 161.383C916.29 163.669 915.916 165.418 915.17 166.628C914.436 167.838 913.356 168.443 911.93 168.443C910.517 168.443 909.437 167.838 908.69 166.628C907.943 165.418 907.57 163.669 907.57 161.383C907.57 159.109 907.943 157.367 908.69 156.157C909.437 154.947 910.517 154.342 911.93 154.342ZM908.99 161.383C908.99 163.005 909.137 164.274 909.43 165.192L913.87 156.357C913.403 155.732 912.756 155.419 911.93 155.419C911.01 155.419 910.29 155.911 909.77 156.895C909.25 157.866 908.99 159.362 908.99 161.383ZM911.93 167.346C912.863 167.346 913.59 166.86 914.11 165.89C914.63 164.906 914.89 163.404 914.89 161.383C914.89 159.667 914.723 158.338 914.39 157.394L909.95 166.309C910.43 167 911.09 167.346 911.93 167.346Z" fill="url(#paint55_linear_175_198)"/>
<path d="M913.13 189.979H916.07V191.036H908.45V189.979H911.85V178.771L908.61 180.705L908.05 179.808L912.05 177.335H913.13V189.979Z" fill="url(#paint56_linear_175_198)"/>
<path d="M911.93 199.928C913.356 199.928 914.436 200.533 915.17 201.743C915.916 202.94 916.29 204.681 916.29 206.968C916.29 209.255 915.916 211.003 915.17 212.213C914.436 213.423 913.356 214.028 911.93 214.028C910.517 214.028 909.437 213.423 908.69 212.213C907.943 211.003 907.57 209.255 907.57 206.968C907.57 204.695 907.943 202.953 908.69 201.743C909.437 200.533 910.517 199.928 911.93 199.928ZM908.99 206.968C908.99 208.59 909.137 209.86 909.43 210.777L913.87 201.942C913.403 201.317 912.756 201.005 911.93 201.005C911.01 201.005 910.29 201.497 909.77 202.481C909.25 203.451 908.99 204.947 908.99 206.968ZM911.93 212.931C912.863 212.931 913.59 212.446 914.11 211.475C914.63 210.492 914.89 208.989 914.89 206.968C914.89 205.253 914.723 203.923 914.39 202.979L909.95 211.894C910.43 212.586 911.09 212.931 911.93 212.931Z" fill="url(#paint57_linear_175_198)"/>
<path d="M913.13 235.565H916.07V236.622H908.45V235.565H911.85V224.356L908.61 226.291L908.05 225.393L912.05 222.92H913.13V235.565Z" fill="url(#paint58_linear_175_198)"/>
<path d="M913.13 258.357H916.07V259.414H908.45V258.357H911.85V247.149L908.61 249.084L908.05 248.186L912.05 245.713H913.13V258.357Z" fill="url(#paint59_linear_175_198)"/>
<path d="M949.07 17.5856C950.497 17.5856 951.577 18.1906 952.31 19.4005C953.057 20.5971 953.43 22.3389 953.43 24.6257C953.43 26.9126 953.057 28.661 952.31 29.8709C951.577 31.0808 950.497 31.6858 949.07 31.6858C947.657 31.6858 946.577 31.0808 945.83 29.8709C945.084 28.661 944.71 26.9126 944.71 24.6257C944.71 22.3522 945.084 20.6104 945.83 19.4005C946.577 18.1906 947.657 17.5856 949.07 17.5856ZM946.13 24.6257C946.13 26.2478 946.277 27.5176 946.57 28.435L951.01 19.5999C950.543 18.975 949.897 18.6626 949.07 18.6626C948.15 18.6626 947.43 19.1545 946.91 20.1384C946.39 21.109 946.13 22.6048 946.13 24.6257ZM949.07 30.5889C950.003 30.5889 950.73 30.1036 951.25 29.133C951.77 28.1491 952.03 26.6467 952.03 24.6257C952.03 22.9106 951.863 21.581 951.53 20.637L947.09 29.5518C947.57 30.2432 948.23 30.5889 949.07 30.5889Z" fill="url(#paint60_linear_175_198)"/>
<path d="M950.27 53.2221H953.21V54.2792H945.59V53.2221H948.99V42.0138L945.75 43.9483L945.19 43.0509L949.19 40.5778H950.27V53.2221Z" fill="url(#paint61_linear_175_198)"/>
<path d="M949.07 63.1712C950.497 63.1712 951.577 63.7762 952.31 64.9861C953.057 66.1827 953.43 67.9245 953.43 70.2113C953.43 72.4982 953.057 74.2466 952.31 75.4565C951.577 76.6664 950.497 77.2714 949.07 77.2714C947.657 77.2714 946.577 76.6664 945.83 75.4565C945.084 74.2466 944.71 72.4982 944.71 70.2113C944.71 67.9378 945.084 66.196 945.83 64.9861C946.577 63.7762 947.657 63.1712 949.07 63.1712ZM946.13 70.2113C946.13 71.8334 946.277 73.1032 946.57 74.0206L951.01 65.1855C950.543 64.5606 949.897 64.2482 949.07 64.2482C948.15 64.2482 947.43 64.7401 946.91 65.724C946.39 66.6946 946.13 68.1904 946.13 70.2113ZM949.07 76.1745C950.003 76.1745 950.73 75.6892 951.25 74.7186C951.77 73.7347 952.03 72.2323 952.03 70.2113C952.03 68.4962 951.863 67.1666 951.53 66.2226L947.09 75.1374C947.57 75.8288 948.23 76.1745 949.07 76.1745Z" fill="url(#paint62_linear_175_198)"/>
<path d="M949.07 85.964C950.497 85.964 951.577 86.569 952.31 87.7789C953.057 88.9755 953.43 90.7173 953.43 93.0041C953.43 95.291 953.057 97.0394 952.31 98.2493C951.577 99.4593 950.497 100.064 949.07 100.064C947.657 100.064 946.577 99.4593 945.83 98.2493C945.084 97.0394 944.71 95.291 944.71 93.0041C944.71 90.7306 945.084 88.9888 945.83 87.7789C946.577 86.569 947.657 85.964 949.07 85.964ZM946.13 93.0041C946.13 94.6262 946.277 95.896 946.57 96.8134L951.01 87.9783C950.543 87.3534 949.897 87.041 949.07 87.041C948.15 87.041 947.43 87.5329 946.91 88.5168C946.39 89.4874 946.13 90.9832 946.13 93.0041ZM949.07 98.9673C950.003 98.9673 950.73 98.482 951.25 97.5114C951.77 96.5275 952.03 95.0251 952.03 93.0041C952.03 91.289 951.863 89.9594 951.53 89.0154L947.09 97.9302C947.57 98.6216 948.23 98.9673 949.07 98.9673Z" fill="url(#paint63_linear_175_198)"/>
<path d="M950.27 121.601H953.21V122.658H945.59V121.601H948.99V110.392L945.75 112.327L945.19 111.429L949.19 108.956H950.27V121.601Z" fill="url(#paint64_linear_175_198)"/>
<path d="M949.07 131.55C950.497 131.55 951.577 132.155 952.31 133.365C953.057 134.561 953.43 136.303 953.43 138.59C953.43 140.877 953.057 142.625 952.31 143.835C951.577 145.045 950.497 145.65 949.07 145.65C947.657 145.65 946.577 145.045 945.83 143.835C945.084 142.625 944.71 140.877 944.71 138.59C944.71 136.316 945.084 134.574 945.83 133.365C946.577 132.155 947.657 131.55 949.07 131.55ZM946.13 138.59C946.13 140.212 946.277 141.482 946.57 142.399L951.01 133.564C950.543 132.939 949.897 132.627 949.07 132.627C948.15 132.627 947.43 133.119 946.91 134.102C946.39 135.073 946.13 136.569 946.13 138.59ZM949.07 144.553C950.003 144.553 950.73 144.068 951.25 143.097C951.77 142.113 952.03 140.611 952.03 138.59C952.03 136.875 951.863 135.545 951.53 134.601L947.09 143.516C947.57 144.207 948.23 144.553 949.07 144.553Z" fill="url(#paint65_linear_175_198)"/>
<path d="M950.27 167.186H953.21V168.243H945.59V167.186H948.99V155.978L945.75 157.912L945.19 157.015L949.19 154.542H950.27V167.186Z" fill="url(#paint66_linear_175_198)"/>
<path d="M949.07 177.135C950.497 177.135 951.577 177.74 952.31 178.95C953.057 180.147 953.43 181.888 953.43 184.175C953.43 186.462 953.057 188.211 952.31 189.421C951.577 190.63 950.497 191.235 949.07 191.235C947.657 191.235 946.577 190.63 945.83 189.421C945.084 188.211 944.71 186.462 944.71 184.175C944.71 181.902 945.084 180.16 945.83 178.95C946.577 177.74 947.657 177.135 949.07 177.135ZM946.13 184.175C946.13 185.797 946.277 187.067 946.57 187.985L951.01 179.15C950.543 178.525 949.897 178.212 949.07 178.212C948.15 178.212 947.43 178.704 946.91 179.688C946.39 180.659 946.13 182.154 946.13 184.175ZM949.07 190.139C950.003 190.139 950.73 189.653 951.25 188.683C951.77 187.699 952.03 186.196 952.03 184.175C952.03 182.46 951.863 181.131 951.53 180.187L947.09 189.101C947.57 189.793 948.23 190.139 949.07 190.139Z" fill="url(#paint67_linear_175_198)"/>
<path d="M949.07 199.928C950.497 199.928 951.577 200.533 952.31 201.743C953.057 202.94 953.43 204.681 953.43 206.968C953.43 209.255 953.057 211.003 952.31 212.213C951.577 213.423 950.497 214.028 949.07 214.028C947.657 214.028 946.577 213.423 945.83 212.213C945.084 211.003 944.71 209.255 944.71 206.968C944.71 204.695 945.084 202.953 945.83 201.743C946.577 200.533 947.657 199.928 949.07 199.928ZM946.13 206.968C946.13 208.59 946.277 209.86 946.57 210.777L951.01 201.942C950.543 201.317 949.897 201.005 949.07 201.005C948.15 201.005 947.43 201.497 946.91 202.481C946.39 203.451 946.13 204.947 946.13 206.968ZM949.07 212.931C950.003 212.931 950.73 212.446 951.25 211.475C951.77 210.492 952.03 208.989 952.03 206.968C952.03 205.253 951.863 203.923 951.53 202.979L947.09 211.894C947.57 212.586 948.23 212.931 949.07 212.931Z" fill="url(#paint68_linear_175_198)"/>
<path d="M950.27 235.565H953.21V236.622H945.59V235.565H948.99V224.356L945.75 226.291L945.19 225.393L949.19 222.92H950.27V235.565Z" fill="url(#paint69_linear_175_198)"/>
<path d="M949.07 245.514C950.497 245.514 951.577 246.119 952.31 247.329C953.057 248.525 953.43 250.267 953.43 252.554C953.43 254.841 953.057 256.589 952.31 257.799C951.577 259.009 950.497 259.614 949.07 259.614C947.657 259.614 946.577 259.009 945.83 257.799C945.084 256.589 944.71 254.841 944.71 252.554C944.71 250.28 945.084 248.538 945.83 247.329C946.577 246.119 947.657 245.514 949.07 245.514ZM946.13 252.554C946.13 254.176 946.277 255.446 946.57 256.363L951.01 247.528C950.543 246.903 949.897 246.591 949.07 246.591C948.15 246.591 947.43 247.083 946.91 248.066C946.39 249.037 946.13 250.533 946.13 252.554ZM949.07 258.517C950.003 258.517 950.73 258.032 951.25 257.061C951.77 256.077 952.03 254.575 952.03 252.554C952.03 250.839 951.863 249.509 951.53 248.565L947.09 257.48C947.57 258.171 948.23 258.517 949.07 258.517Z" fill="url(#paint70_linear_175_198)"/>
<path d="M950.27 281.15H953.21V282.207H945.59V281.15H948.99V269.942L945.75 271.876L945.19 270.979L949.19 268.506H950.27V281.15Z" fill="url(#paint71_linear_175_198)"/>
<path d="M950.27 303.943H953.21V305H945.59V303.943H948.99V292.735L945.75 294.669L945.19 293.772L949.19 291.299H950.27V303.943Z" fill="url(#paint72_linear_175_198)"/>
<path d="M893.36 40.3784C894.786 40.3784 895.866 40.9834 896.599 42.1933C897.346 43.3899 897.719 45.1317 897.719 47.4185C897.719 49.7054 897.346 51.4538 896.599 52.6637C895.866 53.8736 894.786 54.4786 893.36 54.4786C891.946 54.4786 890.867 53.8736 890.12 52.6637C889.373 51.4538 889 49.7054 889 47.4185C889 45.145 889.373 43.4032 890.12 42.1933C890.867 40.9834 891.946 40.3784 893.36 40.3784ZM890.42 47.4185C890.42 49.0406 890.567 50.3104 890.86 51.2278L895.3 42.3927C894.833 41.7678 894.186 41.4554 893.36 41.4554C892.44 41.4554 891.72 41.9473 891.2 42.9312C890.68 43.9018 890.42 45.3976 890.42 47.4185ZM893.36 53.3817C894.293 53.3817 895.02 52.8964 895.54 51.9258C896.06 50.9419 896.319 49.4395 896.319 47.4185C896.319 45.7034 896.153 44.3738 895.82 43.4298L891.38 52.3446C891.86 53.036 892.52 53.3817 893.36 53.3817Z" fill="url(#paint73_linear_175_198)"/>
<path d="M893.36 63.1712C894.786 63.1712 895.866 63.7762 896.599 64.9861C897.346 66.1827 897.719 67.9245 897.719 70.2113C897.719 72.4982 897.346 74.2466 896.599 75.4565C895.866 76.6664 894.786 77.2714 893.36 77.2714C891.946 77.2714 890.867 76.6664 890.12 75.4565C889.373 74.2466 889 72.4982 889 70.2113C889 67.9378 889.373 66.196 890.12 64.9861C890.867 63.7762 891.946 63.1712 893.36 63.1712ZM890.42 70.2113C890.42 71.8334 890.567 73.1032 890.86 74.0206L895.3 65.1855C894.833 64.5606 894.186 64.2482 893.36 64.2482C892.44 64.2482 891.72 64.7401 891.2 65.724C890.68 66.6946 890.42 68.1904 890.42 70.2113ZM893.36 76.1745C894.293 76.1745 895.02 75.6892 895.54 74.7186C896.06 73.7347 896.319 72.2323 896.319 70.2113C896.319 68.4962 896.153 67.1666 895.82 66.2226L891.38 75.1374C891.86 75.8288 892.52 76.1745 893.36 76.1745Z" fill="url(#paint74_linear_175_198)"/>
<path d="M894.56 98.8078H897.499V99.8648H889.88V98.8078H893.28V87.5994L890.04 89.5339L889.48 88.6365L893.48 86.1635H894.56V98.8078Z" fill="url(#paint75_linear_175_198)"/>
<path d="M893.36 108.757C894.786 108.757 895.866 109.362 896.599 110.572C897.346 111.768 897.719 113.51 897.719 115.797C897.719 118.084 897.346 119.832 896.599 121.042C895.866 122.252 894.786 122.857 893.36 122.857C891.946 122.857 890.867 122.252 890.12 121.042C889.373 119.832 889 118.084 889 115.797C889 113.523 889.373 111.782 890.12 110.572C890.867 109.362 891.946 108.757 893.36 108.757ZM890.42 115.797C890.42 117.419 890.567 118.689 890.86 119.606L895.3 110.771C894.833 110.146 894.186 109.834 893.36 109.834C892.44 109.834 891.72 110.326 891.2 111.31C890.68 112.28 890.42 113.776 890.42 115.797ZM893.36 121.76C894.293 121.76 895.02 121.275 895.54 120.304C896.06 119.32 896.319 117.818 896.319 115.797C896.319 114.082 896.153 112.752 895.82 111.808L891.38 120.723C891.86 121.414 892.52 121.76 893.36 121.76Z" fill="url(#paint76_linear_175_198)"/>
<path d="M894.56 144.393H897.499V145.45H889.88V144.393H893.28V133.185L890.04 135.12L889.48 134.222L893.48 131.749H894.56V144.393Z" fill="url(#paint77_linear_175_198)"/>
<path d="M894.56 167.186H897.499V168.243H889.88V167.186H893.28V155.978L890.04 157.912L889.48 157.015L893.48 154.542H894.56V167.186Z" fill="url(#paint78_linear_175_198)"/>
<path d="M931.7 7.63655H934.64V8.69356H927.02V7.63655H930.42V-3.57181L927.18 -1.63727L926.62 -2.53474L930.62 -5.00776H931.7V7.63655Z" fill="url(#paint79_linear_175_198)"/>
<path d="M930.5 17.5856C931.927 17.5856 933.006 18.1906 933.74 19.4005C934.486 20.5971 934.86 22.3389 934.86 24.6257C934.86 26.9126 934.486 28.661 933.74 29.8709C933.006 31.0808 931.927 31.6858 930.5 31.6858C929.087 31.6858 928.007 31.0808 927.26 29.8709C926.514 28.661 926.14 26.9126 926.14 24.6257C926.14 22.3522 926.514 20.6104 927.26 19.4005C928.007 18.1906 929.087 17.5856 930.5 17.5856ZM927.56 24.6257C927.56 26.2478 927.707 27.5176 928 28.435L932.44 19.5999C931.973 18.975 931.327 18.6626 930.5 18.6626C929.58 18.6626 928.86 19.1545 928.34 20.1384C927.82 21.109 927.56 22.6048 927.56 24.6257ZM930.5 30.5889C931.433 30.5889 932.16 30.1036 932.68 29.133C933.2 28.1491 933.46 26.6467 933.46 24.6257C933.46 22.9106 933.293 21.581 932.96 20.637L928.52 29.5518C929 30.2432 929.66 30.5889 930.5 30.5889Z" fill="url(#paint80_linear_175_198)"/>
<path d="M931.7 53.2221H934.64V54.2792H927.02V53.2221H930.42V42.0138L927.18 43.9483L926.62 43.0509L930.62 40.5778H931.7V53.2221Z" fill="url(#paint81_linear_175_198)"/>
<path d="M931.7 76.015H934.64V77.072H927.02V76.015H930.42V64.8066L927.18 66.7411L926.62 65.8437L930.62 63.3706H931.7V76.015Z" fill="url(#paint82_linear_175_198)"/>
<path d="M930.5 85.964C931.927 85.964 933.006 86.569 933.74 87.7789C934.486 88.9755 934.86 90.7173 934.86 93.0041C934.86 95.291 934.486 97.0394 933.74 98.2493C933.006 99.4593 931.927 100.064 930.5 100.064C929.087 100.064 928.007 99.4593 927.26 98.2493C926.514 97.0394 926.14 95.291 926.14 93.0041C926.14 90.7306 926.514 88.9888 927.26 87.7789C928.007 86.569 929.087 85.964 930.5 85.964ZM927.56 93.0041C927.56 94.6262 927.707 95.896 928 96.8134L932.44 87.9783C931.973 87.3534 931.327 87.041 930.5 87.041C929.58 87.041 928.86 87.5329 928.34 88.5168C927.82 89.4874 927.56 90.9832 927.56 93.0041ZM930.5 98.9673C931.433 98.9673 932.16 98.482 932.68 97.5114C933.2 96.5275 933.46 95.0251 933.46 93.0041C933.46 91.289 933.293 89.9594 932.96 89.0154L928.52 97.9302C929 98.6216 929.66 98.9673 930.5 98.9673Z" fill="url(#paint83_linear_175_198)"/>
<path d="M931.7 121.601H934.64V122.658H927.02V121.601H930.42V110.392L927.18 112.327L926.62 111.429L930.62 108.956H931.7V121.601Z" fill="url(#paint84_linear_175_198)"/>
<path d="M931.7 144.393H934.64V145.45H927.02V144.393H930.42V133.185L927.18 135.12L926.62 134.222L930.62 131.749H931.7V144.393Z" fill="url(#paint85_linear_175_198)"/>
<path d="M930.5 154.342C931.927 154.342 933.006 154.947 933.74 156.157C934.486 157.354 934.86 159.096 934.86 161.383C934.86 163.669 934.486 165.418 933.74 166.628C933.006 167.838 931.927 168.443 930.5 168.443C929.087 168.443 928.007 167.838 927.26 166.628C926.514 165.418 926.14 163.669 926.14 161.383C926.14 159.109 926.514 157.367 927.26 156.157C928.007 154.947 929.087 154.342 930.5 154.342ZM927.56 161.383C927.56 163.005 927.707 164.274 928 165.192L932.44 156.357C931.973 155.732 931.327 155.419 930.5 155.419C929.58 155.419 928.86 155.911 928.34 156.895C927.82 157.866 927.56 159.362 927.56 161.383ZM930.5 167.346C931.433 167.346 932.16 166.86 932.68 165.89C933.2 164.906 933.46 163.404 933.46 161.383C933.46 159.667 933.293 158.338 932.96 157.394L928.52 166.309C929 167 929.66 167.346 930.5 167.346Z" fill="url(#paint86_linear_175_198)"/>
<path d="M931.7 189.979H934.64V191.036H927.02V189.979H930.42V178.771L927.18 180.705L926.62 179.808L930.62 177.335H931.7V189.979Z" fill="url(#paint87_linear_175_198)"/>
<path d="M930.5 199.928C931.927 199.928 933.006 200.533 933.74 201.743C934.486 202.94 934.86 204.681 934.86 206.968C934.86 209.255 934.486 211.003 933.74 212.213C933.006 213.423 931.927 214.028 930.5 214.028C929.087 214.028 928.007 213.423 927.26 212.213C926.514 211.003 926.14 209.255 926.14 206.968C926.14 204.695 926.514 202.953 927.26 201.743C928.007 200.533 929.087 199.928 930.5 199.928ZM927.56 206.968C927.56 208.59 927.707 209.86 928 210.777L932.44 201.942C931.973 201.317 931.327 201.005 930.5 201.005C929.58 201.005 928.86 201.497 928.34 202.481C927.82 203.451 927.56 204.947 927.56 206.968ZM930.5 212.931C931.433 212.931 932.16 212.446 932.68 211.475C933.2 210.492 933.46 208.989 933.46 206.968C933.46 205.253 933.293 203.923 932.96 202.979L928.52 211.894C929 212.586 929.66 212.931 930.5 212.931Z" fill="url(#paint88_linear_175_198)"/>
<path d="M967.64 -5.2072C969.067 -5.2072 970.147 -4.60224 970.88 -3.39232C971.627 -2.1957 972 -0.45395 972 1.83293C972 4.11981 971.627 5.86821 970.88 7.07812C970.147 8.28804 969.067 8.893 967.64 8.893C966.227 8.893 965.147 8.28804 964.401 7.07812C963.654 5.86821 963.281 4.11981 963.281 1.83293C963.281 -0.440654 963.654 -2.1824 964.401 -3.39232C965.147 -4.60224 966.227 -5.2072 967.64 -5.2072ZM964.7 1.83293C964.7 3.45502 964.847 4.72477 965.14 5.64218L969.58 -3.19288C969.114 -3.81779 968.467 -4.13024 967.64 -4.13024C966.72 -4.13024 966 -3.63829 965.48 -2.6544C964.96 -1.68381 964.7 -0.188034 964.7 1.83293ZM967.64 7.7961C968.574 7.7961 969.3 7.3108 969.82 6.34021C970.34 5.35632 970.6 3.85389 970.6 1.83293C970.6 0.11777 970.433 -1.21181 970.1 -2.15581L965.66 6.75902C966.14 7.4504 966.8 7.7961 967.64 7.7961Z" fill="url(#paint89_linear_175_198)"/>
<path d="M968.84 30.4293H971.78V31.4864H964.161V30.4293H967.56V19.221L964.321 21.1555L963.761 20.2581L967.76 17.785H968.84V30.4293Z" fill="url(#paint90_linear_175_198)"/>
<path d="M968.84 53.2221H971.78V54.2792H964.161V53.2221H967.56V42.0138L964.321 43.9483L963.761 43.0509L967.76 40.5778H968.84V53.2221Z" fill="url(#paint91_linear_175_198)"/>
<path d="M967.64 63.1712C969.067 63.1712 970.147 63.7762 970.88 64.9861C971.627 66.1827 972 67.9245 972 70.2113C972 72.4982 971.627 74.2466 970.88 75.4565C970.147 76.6664 969.067 77.2714 967.64 77.2714C966.227 77.2714 965.147 76.6664 964.401 75.4565C963.654 74.2466 963.281 72.4982 963.281 70.2113C963.281 67.9378 963.654 66.196 964.401 64.9861C965.147 63.7762 966.227 63.1712 967.64 63.1712ZM964.7 70.2113C964.7 71.8334 964.847 73.1032 965.14 74.0206L969.58 65.1855C969.114 64.5606 968.467 64.2482 967.64 64.2482C966.72 64.2482 966 64.7401 965.48 65.724C964.96 66.6946 964.7 68.1904 964.7 70.2113ZM967.64 76.1745C968.574 76.1745 969.3 75.6892 969.82 74.7186C970.34 73.7347 970.6 72.2323 970.6 70.2113C970.6 68.4962 970.433 67.1666 970.1 66.2226L965.66 75.1374C966.14 75.8288 966.8 76.1745 967.64 76.1745Z" fill="url(#paint92_linear_175_198)"/>
<path d="M967.64 85.964C969.067 85.964 970.147 86.569 970.88 87.7789C971.627 88.9755 972 90.7173 972 93.0041C972 95.291 971.627 97.0394 970.88 98.2493C970.147 99.4593 969.067 100.064 967.64 100.064C966.227 100.064 965.147 99.4593 964.401 98.2493C963.654 97.0394 963.281 95.291 963.281 93.0041C963.281 90.7306 963.654 88.9888 964.401 87.7789C965.147 86.569 966.227 85.964 967.64 85.964ZM964.7 93.0041C964.7 94.6262 964.847 95.896 965.14 96.8134L969.58 87.9783C969.114 87.3534 968.467 87.041 967.64 87.041C966.72 87.041 966 87.5329 965.48 88.5168C964.96 89.4874 964.7 90.9832 964.7 93.0041ZM967.64 98.9673C968.574 98.9673 969.3 98.482 969.82 97.5114C970.34 96.5275 970.6 95.0251 970.6 93.0041C970.6 91.289 970.433 89.9594 970.1 89.0154L965.66 97.9302C966.14 98.6216 966.8 98.9673 967.64 98.9673Z" fill="url(#paint93_linear_175_198)"/>
</g>
<defs>
<filter id="filter0_f_175_198" x="-566.19" y="-714.19" width="2141.38" height="1500.38" filterUnits="userSpaceOnUse" color-interpolation-filters="sRGB">
<feFlood flood-opacity="0" result="BackgroundImageFix"/>
<feBlend mode="normal" in="SourceGraphic" in2="BackgroundImageFix" result="shape"/>
<feGaussianBlur stdDeviation="200.095" result="effect1_foregroundBlur_175_198"/>
</filter>
<linearGradient id="paint0_linear_175_198" x1="44.5" y1="272" x2="44.5" y2="583.381" gradientUnits="userSpaceOnUse">
<stop stop-color="#F7DD43"/>
<stop offset="1" stop-color="#F7DD43" stop-opacity="0"/>
</linearGradient>
<linearGradient id="paint1_linear_175_198" x1="44.5" y1="272" x2="44.5" y2="583.381" gradientUnits="userSpaceOnUse">
<stop stop-color="#F7DD43"/>
<stop offset="1" stop-color="#F7DD43" stop-opacity="0"/>
</linearGradient>
<linearGradient id="paint2_linear_175_198" x1="44.5" y1="272" x2="44.5" y2="583.381" gradientUnits="userSpaceOnUse">
<stop stop-color="#F7DD43"/>
<stop offset="1" stop-color="#F7DD43" stop-opacity="0"/>
</linearGradient>
<linearGradient id="paint3_linear_175_198" x1="44.5" y1="272" x2="44.5" y2="583.381" gradientUnits="userSpaceOnUse">
<stop stop-color="#F7DD43"/>
<stop offset="1" stop-color="#F7DD43" stop-opacity="0"/>
</linearGradient>
<linearGradient id="paint4_linear_175_198" x1="44.5" y1="272" x2="44.5" y2="583.381" gradientUnits="userSpaceOnUse">
<stop stop-color="#F7DD43"/>
<stop offset="1" stop-color="#F7DD43" stop-opacity="0"/>
</linearGradient>
<linearGradient id="paint5_linear_175_198" x1="44.5" y1="272" x2="44.5" y2="583.381" gradientUnits="userSpaceOnUse">
<stop stop-color="#F7DD43"/>
<stop offset="1" stop-color="#F7DD43" stop-opacity="0"/>
</linearGradient>
<linearGradient id="paint6_linear_175_198" x1="44.5" y1="272" x2="44.5" y2="583.381" gradientUnits="userSpaceOnUse">
<stop stop-color="#F7DD43"/>
<stop offset="1" stop-color="#F7DD43" stop-opacity="0"/>
</linearGradient>
<linearGradient id="paint7_linear_175_198" x1="44.5" y1="272" x2="44.5" y2="583.381" gradientUnits="userSpaceOnUse">
<stop stop-color="#F7DD43"/>
<stop offset="1" stop-color="#F7DD43" stop-opacity="0"/>
</linearGradient>
<linearGradient id="paint8_linear_175_198" x1="44.5" y1="272" x2="44.5" y2="583.381" gradientUnits="userSpaceOnUse">
<stop stop-color="#F7DD43"/>
<stop offset="1" stop-color="#F7DD43" stop-opacity="0"/>
</linearGradient>
<linearGradient id="paint9_linear_175_198" x1="44.5" y1="272" x2="44.5" y2="583.381" gradientUnits="userSpaceOnUse">
<stop stop-color="#F7DD43"/>
<stop offset="1" stop-color="#F7DD43" stop-opacity="0"/>
</linearGradient>
<linearGradient id="paint10_linear_175_198" x1="44.5" y1="272" x2="44.5" y2="583.381" gradientUnits="userSpaceOnUse">
<stop stop-color="#F7DD43"/>
<stop offset="1" stop-color="#F7DD43" stop-opacity="0"/>
</linearGradient>
<linearGradient id="paint11_linear_175_198" x1="44.5" y1="272" x2="44.5" y2="583.381" gradientUnits="userSpaceOnUse">
<stop stop-color="#F7DD43"/>
<stop offset="1" stop-color="#F7DD43" stop-opacity="0"/>
</linearGradient>
<linearGradient id="paint12_linear_175_198" x1="44.5" y1="272" x2="44.5" y2="583.381" gradientUnits="userSpaceOnUse">
<stop stop-color="#F7DD43"/>
<stop offset="1" stop-color="#F7DD43" stop-opacity="0"/>
</linearGradient>
<linearGradient id="paint13_linear_175_198" x1="44.5" y1="272" x2="44.5" y2="583.381" gradientUnits="userSpaceOnUse">
<stop stop-color="#F7DD43"/>
<stop offset="1" stop-color="#F7DD43" stop-opacity="0"/>
</linearGradient>
<linearGradient id="paint14_linear_175_198" x1="44.5" y1="272" x2="44.5" y2="583.381" gradientUnits="userSpaceOnUse">
<stop stop-color="#F7DD43"/>
<stop offset="1" stop-color="#F7DD43" stop-opacity="0"/>
</linearGradient>
<linearGradient id="paint15_linear_175_198" x1="44.5" y1="272" x2="44.5" y2="583.381" gradientUnits="userSpaceOnUse">
<stop stop-color="#F7DD43"/>
<stop offset="1" stop-color="#F7DD43" stop-opacity="0"/>
</linearGradient>
<linearGradient id="paint16_linear_175_198" x1="44.5" y1="272" x2="44.5" y2="583.381" gradientUnits="userSpaceOnUse">
<stop stop-color="#F7DD43"/>
<stop offset="1" stop-color="#F7DD43" stop-opacity="0"/>
</linearGradient>
<linearGradient id="paint17_linear_175_198" x1="44.5" y1="272" x2="44.5" y2="583.381" gradientUnits="userSpaceOnUse">
<stop stop-color="#F7DD43"/>
<stop offset="1" stop-color="#F7DD43" stop-opacity="0"/>
</linearGradient>
<linearGradient id="paint18_linear_175_198" x1="44.5" y1="272" x2="44.5" y2="583.381" gradientUnits="userSpaceOnUse">
<stop stop-color="#F7DD43"/>
<stop offset="1" stop-color="#F7DD43" stop-opacity="0"/>
</linearGradient>
<linearGradient id="paint19_linear_175_198" x1="44.5" y1="272" x2="44.5" y2="583.381" gradientUnits="userSpaceOnUse">
<stop stop-color="#F7DD43"/>
<stop offset="1" stop-color="#F7DD43" stop-opacity="0"/>
</linearGradient>
<linearGradient id="paint20_linear_175_198" x1="44.5" y1="272" x2="44.5" y2="583.381" gradientUnits="userSpaceOnUse">
<stop stop-color="#F7DD43"/>
<stop offset="1" stop-color="#F7DD43" stop-opacity="0"/>
</linearGradient>
<linearGradient id="paint21_linear_175_198" x1="44.5" y1="272" x2="44.5" y2="583.381" gradientUnits="userSpaceOnUse">
<stop stop-color="#F7DD43"/>
<stop offset="1" stop-color="#F7DD43" stop-opacity="0"/>
</linearGradient>
<linearGradient id="paint22_linear_175_198" x1="44.5" y1="272" x2="44.5" y2="583.381" gradientUnits="userSpaceOnUse">
<stop stop-color="#F7DD43"/>
<stop offset="1" stop-color="#F7DD43" stop-opacity="0"/>
</linearGradient>
<linearGradient id="paint23_linear_175_198" x1="44.5" y1="272" x2="44.5" y2="583.381" gradientUnits="userSpaceOnUse">
<stop stop-color="#F7DD43"/>
<stop offset="1" stop-color="#F7DD43" stop-opacity="0"/>
</linearGradient>
<linearGradient id="paint24_linear_175_198" x1="44.5" y1="272" x2="44.5" y2="583.381" gradientUnits="userSpaceOnUse">
<stop stop-color="#F7DD43"/>
<stop offset="1" stop-color="#F7DD43" stop-opacity="0"/>
</linearGradient>
<linearGradient id="paint25_linear_175_198" x1="44.5" y1="272" x2="44.5" y2="583.381" gradientUnits="userSpaceOnUse">
<stop stop-color="#F7DD43"/>
<stop offset="1" stop-color="#F7DD43" stop-opacity="0"/>
</linearGradient>
<linearGradient id="paint26_linear_175_198" x1="44.5" y1="272" x2="44.5" y2="583.381" gradientUnits="userSpaceOnUse">
<stop stop-color="#F7DD43"/>
<stop offset="1" stop-color="#F7DD43" stop-opacity="0"/>
</linearGradient>
<linearGradient id="paint27_linear_175_198" x1="44.5" y1="272" x2="44.5" y2="583.381" gradientUnits="userSpaceOnUse">
<stop stop-color="#F7DD43"/>
<stop offset="1" stop-color="#F7DD43" stop-opacity="0"/>
</linearGradient>
<linearGradient id="paint28_linear_175_198" x1="44.5" y1="272" x2="44.5" y2="583.381" gradientUnits="userSpaceOnUse">
<stop stop-color="#F7DD43"/>
<stop offset="1" stop-color="#F7DD43" stop-opacity="0"/>
</linearGradient>
<linearGradient id="paint29_linear_175_198" x1="44.5" y1="272" x2="44.5" y2="583.381" gradientUnits="userSpaceOnUse">
<stop stop-color="#F7DD43"/>
<stop offset="1" stop-color="#F7DD43" stop-opacity="0"/>
</linearGradient>
<linearGradient id="paint30_linear_175_198" x1="44.5" y1="272" x2="44.5" y2="583.381" gradientUnits="userSpaceOnUse">
<stop stop-color="#F7DD43"/>
<stop offset="1" stop-color="#F7DD43" stop-opacity="0"/>
</linearGradient>
<linearGradient id="paint31_linear_175_198" x1="44.5" y1="272" x2="44.5" y2="583.381" gradientUnits="userSpaceOnUse">
<stop stop-color="#F7DD43"/>
<stop offset="1" stop-color="#F7DD43" stop-opacity="0"/>
</linearGradient>
<linearGradient id="paint32_linear_175_198" x1="44.5" y1="272" x2="44.5" y2="583.381" gradientUnits="userSpaceOnUse">
<stop stop-color="#F7DD43"/>
<stop offset="1" stop-color="#F7DD43" stop-opacity="0"/>
</linearGradient>
<linearGradient id="paint33_linear_175_198" x1="44.5" y1="272" x2="44.5" y2="583.381" gradientUnits="userSpaceOnUse">
<stop stop-color="#F7DD43"/>
<stop offset="1" stop-color="#F7DD43" stop-opacity="0"/>
</linearGradient>
<linearGradient id="paint34_linear_175_198" x1="44.5" y1="272" x2="44.5" y2="583.381" gradientUnits="userSpaceOnUse">
<stop stop-color="#F7DD43"/>
<stop offset="1" stop-color="#F7DD43" stop-opacity="0"/>
</linearGradient>
<linearGradient id="paint35_linear_175_198" x1="44.5" y1="272" x2="44.5" y2="583.381" gradientUnits="userSpaceOnUse">
<stop stop-color="#F7DD43"/>
<stop offset="1" stop-color="#F7DD43" stop-opacity="0"/>
</linearGradient>
<linearGradient id="paint36_linear_175_198" x1="44.5" y1="272" x2="44.5" y2="583.381" gradientUnits="userSpaceOnUse">
<stop stop-color="#F7DD43"/>
<stop offset="1" stop-color="#F7DD43" stop-opacity="0"/>
</linearGradient>
<linearGradient id="paint37_linear_175_198" x1="44.5" y1="272" x2="44.5" y2="583.381" gradientUnits="userSpaceOnUse">
<stop stop-color="#F7DD43"/>
<stop offset="1" stop-color="#F7DD43" stop-opacity="0"/>
</linearGradient>
<linearGradient id="paint38_linear_175_198" x1="44.5" y1="272" x2="44.5" y2="583.381" gradientUnits="userSpaceOnUse">
<stop stop-color="#F7DD43"/>
<stop offset="1" stop-color="#F7DD43" stop-opacity="0"/>
</linearGradient>
<linearGradient id="paint39_linear_175_198" x1="44.5" y1="272" x2="44.5" y2="583.381" gradientUnits="userSpaceOnUse">
<stop stop-color="#F7DD43"/>
<stop offset="1" stop-color="#F7DD43" stop-opacity="0"/>
</linearGradient>
<linearGradient id="paint40_linear_175_198" x1="44.5" y1="272" x2="44.5" y2="583.381" gradientUnits="userSpaceOnUse">
<stop stop-color="#F7DD43"/>
<stop offset="1" stop-color="#F7DD43" stop-opacity="0"/>
</linearGradient>
<linearGradient id="paint41_linear_175_198" x1="44.5" y1="272" x2="44.5" y2="583.381" gradientUnits="userSpaceOnUse">
<stop stop-color="#F7DD43"/>
<stop offset="1" stop-color="#F7DD43" stop-opacity="0"/>
</linearGradient>
<linearGradient id="paint42_linear_175_198" x1="44.5" y1="272" x2="44.5" y2="583.381" gradientUnits="userSpaceOnUse">
<stop stop-color="#F7DD43"/>
<stop offset="1" stop-color="#F7DD43" stop-opacity="0"/>
</linearGradient>
<linearGradient id="paint43_linear_175_198" x1="44.5" y1="272" x2="44.5" y2="583.381" gradientUnits="userSpaceOnUse">
<stop stop-color="#F7DD43"/>
<stop offset="1" stop-color="#F7DD43" stop-opacity="0"/>
</linearGradient>
<linearGradient id="paint44_linear_175_198" x1="44.5" y1="272" x2="44.5" y2="583.381" gradientUnits="userSpaceOnUse">
<stop stop-color="#F7DD43"/>
<stop offset="1" stop-color="#F7DD43" stop-opacity="0"/>
</linearGradient>
<linearGradient id="paint45_linear_175_198" x1="44.5" y1="272" x2="44.5" y2="583.381" gradientUnits="userSpaceOnUse">
<stop stop-color="#F7DD43"/>
<stop offset="1" stop-color="#F7DD43" stop-opacity="0"/>
</linearGradient>
<linearGradient id="paint46_linear_175_198" x1="44.5" y1="272" x2="44.5" y2="583.381" gradientUnits="userSpaceOnUse">
<stop stop-color="#F7DD43"/>
<stop offset="1" stop-color="#F7DD43" stop-opacity="0"/>
</linearGradient>
<linearGradient id="paint47_linear_175_198" x1="930.5" y1="-28" x2="930.5" y2="270.818" gradientUnits="userSpaceOnUse">
<stop stop-color="#F7DD43"/>
<stop offset="1" stop-color="#F7DD43" stop-opacity="0"/>
</linearGradient>
<linearGradient id="paint48_linear_175_198" x1="930.5" y1="-28" x2="930.5" y2="270.818" gradientUnits="userSpaceOnUse">
<stop stop-color="#F7DD43"/>
<stop offset="1" stop-color="#F7DD43" stop-opacity="0"/>
</linearGradient>
<linearGradient id="paint49_linear_175_198" x1="930.5" y1="-28" x2="930.5" y2="270.818" gradientUnits="userSpaceOnUse">
<stop stop-color="#F7DD43"/>
<stop offset="1" stop-color="#F7DD43" stop-opacity="0"/>
</linearGradient>
<linearGradient id="paint50_linear_175_198" x1="930.5" y1="-28" x2="930.5" y2="270.818" gradientUnits="userSpaceOnUse">
<stop stop-color="#F7DD43"/>
<stop offset="1" stop-color="#F7DD43" stop-opacity="0"/>
</linearGradient>
<linearGradient id="paint51_linear_175_198" x1="930.5" y1="-28" x2="930.5" y2="270.818" gradientUnits="userSpaceOnUse">
<stop stop-color="#F7DD43"/>
<stop offset="1" stop-color="#F7DD43" stop-opacity="0"/>
</linearGradient>
<linearGradient id="paint52_linear_175_198" x1="930.5" y1="-28" x2="930.5" y2="270.818" gradientUnits="userSpaceOnUse">
<stop stop-color="#F7DD43"/>
<stop offset="1" stop-color="#F7DD43" stop-opacity="0"/>
</linearGradient>
<linearGradient id="paint53_linear_175_198" x1="930.5" y1="-28" x2="930.5" y2="270.818" gradientUnits="userSpaceOnUse">
<stop stop-color="#F7DD43"/>
<stop offset="1" stop-color="#F7DD43" stop-opacity="0"/>
</linearGradient>
<linearGradient id="paint54_linear_175_198" x1="930.5" y1="-28" x2="930.5" y2="270.818" gradientUnits="userSpaceOnUse">
<stop stop-color="#F7DD43"/>
<stop offset="1" stop-color="#F7DD43" stop-opacity="0"/>
</linearGradient>
<linearGradient id="paint55_linear_175_198" x1="930.5" y1="-28" x2="930.5" y2="270.818" gradientUnits="userSpaceOnUse">
<stop stop-color="#F7DD43"/>
<stop offset="1" stop-color="#F7DD43" stop-opacity="0"/>
</linearGradient>
<linearGradient id="paint56_linear_175_198" x1="930.5" y1="-28" x2="930.5" y2="270.818" gradientUnits="userSpaceOnUse">
<stop stop-color="#F7DD43"/>
<stop offset="1" stop-color="#F7DD43" stop-opacity="0"/>
</linearGradient>
<linearGradient id="paint57_linear_175_198" x1="930.5" y1="-28" x2="930.5" y2="270.818" gradientUnits="userSpaceOnUse">
<stop stop-color="#F7DD43"/>
<stop offset="1" stop-color="#F7DD43" stop-opacity="0"/>
</linearGradient>
<linearGradient id="paint58_linear_175_198" x1="930.5" y1="-28" x2="930.5" y2="270.818" gradientUnits="userSpaceOnUse">
<stop stop-color="#F7DD43"/>
<stop offset="1" stop-color="#F7DD43" stop-opacity="0"/>
</linearGradient>
<linearGradient id="paint59_linear_175_198" x1="930.5" y1="-28" x2="930.5" y2="270.818" gradientUnits="userSpaceOnUse">
<stop stop-color="#F7DD43"/>
<stop offset="1" stop-color="#F7DD43" stop-opacity="0"/>
</linearGradient>
<linearGradient id="paint60_linear_175_198" x1="930.5" y1="-28" x2="930.5" y2="270.818" gradientUnits="userSpaceOnUse">
<stop stop-color="#F7DD43"/>
<stop offset="1" stop-color="#F7DD43" stop-opacity="0"/>
</linearGradient>
<linearGradient id="paint61_linear_175_198" x1="930.5" y1="-28" x2="930.5" y2="270.818" gradientUnits="userSpaceOnUse">
<stop stop-color="#F7DD43"/>
<stop offset="1" stop-color="#F7DD43" stop-opacity="0"/>
</linearGradient>
<linearGradient id="paint62_linear_175_198" x1="930.5" y1="-28" x2="930.5" y2="270.818" gradientUnits="userSpaceOnUse">
<stop stop-color="#F7DD43"/>
<stop offset="1" stop-color="#F7DD43" stop-opacity="0"/>
</linearGradient>
<linearGradient id="paint63_linear_175_198" x1="930.5" y1="-28" x2="930.5" y2="270.818" gradientUnits="userSpaceOnUse">
<stop stop-color="#F7DD43"/>
<stop offset="1" stop-color="#F7DD43" stop-opacity="0"/>
</linearGradient>
<linearGradient id="paint64_linear_175_198" x1="930.5" y1="-28" x2="930.5" y2="270.818" gradientUnits="userSpaceOnUse">
<stop stop-color="#F7DD43"/>
<stop offset="1" stop-color="#F7DD43" stop-opacity="0"/>
</linearGradient>
<linearGradient id="paint65_linear_175_198" x1="930.5" y1="-28" x2="930.5" y2="270.818" gradientUnits="userSpaceOnUse">
<stop stop-color="#F7DD43"/>
<stop offset="1" stop-color="#F7DD43" stop-opacity="0"/>
</linearGradient>
<linearGradient id="paint66_linear_175_198" x1="930.5" y1="-28" x2="930.5" y2="270.818" gradientUnits="userSpaceOnUse">
<stop stop-color="#F7DD43"/>
<stop offset="1" stop-color="#F7DD43" stop-opacity="0"/>
</linearGradient>
<linearGradient id="paint67_linear_175_198" x1="930.5" y1="-28" x2="930.5" y2="270.818" gradientUnits="userSpaceOnUse">
<stop stop-color="#F7DD43"/>
<stop offset="1" stop-color="#F7DD43" stop-opacity="0"/>
</linearGradient>
<linearGradient id="paint68_linear_175_198" x1="930.5" y1="-28" x2="930.5" y2="270.818" gradientUnits="userSpaceOnUse">
<stop stop-color="#F7DD43"/>
<stop offset="1" stop-color="#F7DD43" stop-opacity="0"/>
</linearGradient>
<linearGradient id="paint69_linear_175_198" x1="930.5" y1="-28" x2="930.5" y2="270.818" gradientUnits="userSpaceOnUse">
<stop stop-color="#F7DD43"/>
<stop offset="1" stop-color="#F7DD43" stop-opacity="0"/>
</linearGradient>
<linearGradient id="paint70_linear_175_198" x1="930.5" y1="-28" x2="930.5" y2="270.818" gradientUnits="userSpaceOnUse">
<stop stop-color="#F7DD43"/>
<stop offset="1" stop-color="#F7DD43" stop-opacity="0"/>
</linearGradient>
<linearGradient id="paint71_linear_175_198" x1="930.5" y1="-28" x2="930.5" y2="270.818" gradientUnits="userSpaceOnUse">
<stop stop-color="#F7DD43"/>
<stop offset="1" stop-color="#F7DD43" stop-opacity="0"/>
</linearGradient>
<linearGradient id="paint72_linear_175_198" x1="930.5" y1="-28" x2="930.5" y2="270.818" gradientUnits="userSpaceOnUse">
<stop stop-color="#F7DD43"/>
<stop offset="1" stop-color="#F7DD43" stop-opacity="0"/>
</linearGradient>
<linearGradient id="paint73_linear_175_198" x1="930.5" y1="-28" x2="930.5" y2="270.818" gradientUnits="userSpaceOnUse">
<stop stop-color="#F7DD43"/>
<stop offset="1" stop-color="#F7DD43" stop-opacity="0"/>
</linearGradient>
<linearGradient id="paint74_linear_175_198" x1="930.5" y1="-28" x2="930.5" y2="270.818" gradientUnits="userSpaceOnUse">
<stop stop-color="#F7DD43"/>
<stop offset="1" stop-color="#F7DD43" stop-opacity="0"/>
</linearGradient>
<linearGradient id="paint75_linear_175_198" x1="930.5" y1="-28" x2="930.5" y2="270.818" gradientUnits="userSpaceOnUse">
<stop stop-color="#F7DD43"/>
<stop offset="1" stop-color="#F7DD43" stop-opacity="0"/>
</linearGradient>
<linearGradient id="paint76_linear_175_198" x1="930.5" y1="-28" x2="930.5" y2="270.818" gradientUnits="userSpaceOnUse">
<stop stop-color="#F7DD43"/>
<stop offset="1" stop-color="#F7DD43" stop-opacity="0"/>
</linearGradient>
<linearGradient id="paint77_linear_175_198" x1="930.5" y1="-28" x2="930.5" y2="270.818" gradientUnits="userSpaceOnUse">
<stop stop-color="#F7DD43"/>
<stop offset="1" stop-color="#F7DD43" stop-opacity="0"/>
</linearGradient>
<linearGradient id="paint78_linear_175_198" x1="930.5" y1="-28" x2="930.5" y2="270.818" gradientUnits="userSpaceOnUse">
<stop stop-color="#F7DD43"/>
<stop offset="1" stop-color="#F7DD43" stop-opacity="0"/>
</linearGradient>
<linearGradient id="paint79_linear_175_198" x1="930.5" y1="-28" x2="930.5" y2="270.818" gradientUnits="userSpaceOnUse">
<stop stop-color="#F7DD43"/>
<stop offset="1" stop-color="#F7DD43" stop-opacity="0"/>
</linearGradient>
<linearGradient id="paint80_linear_175_198" x1="930.5" y1="-28" x2="930.5" y2="270.818" gradientUnits="userSpaceOnUse">
<stop stop-color="#F7DD43"/>
<stop offset="1" stop-color="#F7DD43" stop-opacity="0"/>
</linearGradient>
<linearGradient id="paint81_linear_175_198" x1="930.5" y1="-28" x2="930.5" y2="270.818" gradientUnits="userSpaceOnUse">
<stop stop-color="#F7DD43"/>
<stop offset="1" stop-color="#F7DD43" stop-opacity="0"/>
</linearGradient>
<linearGradient id="paint82_linear_175_198" x1="930.5" y1="-28" x2="930.5" y2="270.818" gradientUnits="userSpaceOnUse">
<stop stop-color="#F7DD43"/>
<stop offset="1" stop-color="#F7DD43" stop-opacity="0"/>
</linearGradient>
<linearGradient id="paint83_linear_175_198" x1="930.5" y1="-28" x2="930.5" y2="270.818" gradientUnits="userSpaceOnUse">
<stop stop-color="#F7DD43"/>
<stop offset="1" stop-color="#F7DD43" stop-opacity="0"/>
</linearGradient>
<linearGradient id="paint84_linear_175_198" x1="930.5" y1="-28" x2="930.5" y2="270.818" gradientUnits="userSpaceOnUse">
<stop stop-color="#F7DD43"/>
<stop offset="1" stop-color="#F7DD43" stop-opacity="0"/>
</linearGradient>
<linearGradient id="paint85_linear_175_198" x1="930.5" y1="-28" x2="930.5" y2="270.818" gradientUnits="userSpaceOnUse">
<stop stop-color="#F7DD43"/>
<stop offset="1" stop-color="#F7DD43" stop-opacity="0"/>
</linearGradient>
<linearGradient id="paint86_linear_175_198" x1="930.5" y1="-28" x2="930.5" y2="270.818" gradientUnits="userSpaceOnUse">
<stop stop-color="#F7DD43"/>
<stop offset="1" stop-color="#F7DD43" stop-opacity="0"/>
</linearGradient>
<linearGradient id="paint87_linear_175_198" x1="930.5" y1="-28" x2="930.5" y2="270.818" gradientUnits="userSpaceOnUse">
<stop stop-color="#F7DD43"/>
<stop offset="1" stop-color="#F7DD43" stop-opacity="0"/>
</linearGradient>
<linearGradient id="paint88_linear_175_198" x1="930.5" y1="-28" x2="930.5" y2="270.818" gradientUnits="userSpaceOnUse">
<stop stop-color="#F7DD43"/>
<stop offset="1" stop-color="#F7DD43" stop-opacity="0"/>
</linearGradient>
<linearGradient id="paint89_linear_175_198" x1="930.5" y1="-28" x2="930.5" y2="270.818" gradientUnits="userSpaceOnUse">
<stop stop-color="#F7DD43"/>
<stop offset="1" stop-color="#F7DD43" stop-opacity="0"/>
</linearGradient>
<linearGradient id="paint90_linear_175_198" x1="930.5" y1="-28" x2="930.5" y2="270.818" gradientUnits="userSpaceOnUse">
<stop stop-color="#F7DD43"/>
<stop offset="1" stop-color="#F7DD43" stop-opacity="0"/>
</linearGradient>
<linearGradient id="paint91_linear_175_198" x1="930.5" y1="-28" x2="930.5" y2="270.818" gradientUnits="userSpaceOnUse">
<stop stop-color="#F7DD43"/>
<stop offset="1" stop-color="#F7DD43" stop-opacity="0"/>
</linearGradient>
<linearGradient id="paint92_linear_175_198" x1="930.5" y1="-28" x2="930.5" y2="270.818" gradientUnits="userSpaceOnUse">
<stop stop-color="#F7DD43"/>
<stop offset="1" stop-color="#F7DD43" stop-opacity="0"/>
</linearGradient>
<linearGradient id="paint93_linear_175_198" x1="930.5" y1="-28" x2="930.5" y2="270.818" gradientUnits="userSpaceOnUse">
<stop stop-color="#F7DD43"/>
<stop offset="1" stop-color="#F7DD43" stop-opacity="0"/>
</linearGradient>
</defs>
</svg>
